SplineFontDB: 3.2
FontName: Untitled1
FullName: Untitled1
FamilyName: Untitled1
Weight: Regular
Copyright: Copyright (c) 2025, Unknown
UComments: "2025-1-13: Created with FontForge (http://fontforge.org)"
Version: 001.000
ItalicAngle: 0
UnderlinePosition: -102.4
UnderlineWidth: 51.2
Ascent: 819
Descent: 205
InvalidEm: 0
LayerCount: 3
Layer: 0 0 "Back" 1
Layer: 1 0 "Fore" 0
Layer: 2 0 "Back 2" 1
XUID: [1021 950 1986970086 13027503]
StyleMap: 0x0000
FSType: 0
OS2Version: 0
OS2_WeightWidthSlopeOnly: 0
OS2_UseTypoMetrics: 1
CreationTime: 1736800337
ModificationTime: 1736889906
OS2TypoAscent: 0
OS2TypoAOffset: 1
OS2TypoDescent: 0
OS2TypoDOffset: 1
OS2TypoLinegap: 92
OS2WinAscent: 0
OS2WinAOffset: 1
OS2WinDescent: 0
OS2WinDOffset: 1
HheadAscent: 0
HheadAOffset: 1
HheadDescent: 0
HheadDOffset: 1
MarkAttachClasses: 1
DEI: 91125
Encoding: ISO8859-1
UnicodeInterp: none
NameList: AGL For New Fonts
DisplaySize: -48
AntiAlias: 1
FitToEm: 0
WinInfo: 64 16 4
BeginPrivate: 0
EndPrivate
Grid
-1024 1336.19995117 m 0
 2048 1336.19995117 l 1024
EndSplineSet
BeginChars: 256 57

StartChar: three
Encoding: 51 51 0
Width: 1024
Flags: W
HStem: -202 173<92 739.676> 218 172<92 739.807> 643 173<96 733.479>
VStem: 759 173<-9.08848 169.921 409.578 623.351>
LayerCount: 3
Fore
SplineSet
92 -202 m 1
 92 -29 l 1
 695 -29 l 2
 696 -29 711 -25 714 -24 c 0
 738 -15 756 9 759 35 c 0
 762 61 763 149 756 171 c 0
 751 188 725 218 707 218 c 2
 92 218 l 1
 92 390 l 1
 701 390 l 2
 722 390 749 417 755 437 c 0
 762 459 761 548 759 574 c 0
 757 596 751 612 734 626 c 0
 723 635 704 643 689 643 c 2
 92 643 l 1
 92 812 l 1
 96 816 l 1
 811 816 l 2
 872 816 931 756 932 696 c 2
 932 -90 l 2
 927 -144 869 -202 814 -202 c 2
 92 -202 l 1
EndSplineSet
Validated: 33
EndChar

StartChar: nine
Encoding: 57 57 1
Width: 1024
Flags: W
HStem: -202 170<77 758.801> 224 161<379.516 752.234> 646 170<273.932 752.146>
VStem: 77 176<403.775 625.844> 774 173<-15.6206 211.014 406.183 623.633>
LayerCount: 3
Fore
SplineSet
77 -202 m 1
 77 -32 l 1
 731 -32 l 2
 735 -32 755 -20 759 -16 c 0
 767 -8 773 6 774 17 c 0
 778 51 778 144 774 177 c 0
 770 204 742 223 716 224 c 2
 153 224 l 2
 110 231 81 265 77 308 c 2
 78 742 l 2
 88 789 124 812 171 816 c 2
 853 816 l 2
 903 812 941 786 947 734 c 2
 947 -96 l 2
 943 -146 888 -202 838 -202 c 2
 77 -202 l 1
374 646 m 1
 330 644 277 651 259 600 c 0
 250 574 250 482 253 452 c 0
 257 414 281 387 320 384 c 0
 445 373 584 393 710 385 c 0
 746 391 767 416 771 452 c 0
 774 480 774 576 766 599 c 0
 748 651 705 641 662 643 c 0
 567 647 469 650 374 646 c 1
EndSplineSet
Validated: 33
EndChar

StartChar: K
Encoding: 75 75 2
Width: 1024
Flags: W
HStem: -176.55 21G<137.7 294.45> -176.55 21G<137.7 294.45> 224.35 163.4<321.362 651.001> 769.6 20.9502G<137.7 294.45 730.321 828.418> 769.6 20.9502G<137.7 294.45 730.321 828.418>
VStem: 137.7 156.75<-176.55 212.725 400.349 788.65>
LayerCount: 3
Fore
SplineSet
294.450195312 438.099609375 m 2xb4
 296.349609375 422.900390625 307.75 405.799804688 321.049804688 397.25 c 0
 327.700195312 393.450195312 335.299804688 391.549804688 341 387.75 c 2
 616.5 387.75 l 2
 619.349609375 391.549804688 622.200195312 390.599609375 626 392.5 c 0
 647.849609375 401.049804688 657.349609375 414.349609375 664 436.200195312 c 2
 734.299804688 789.599609375 l 1
 886.299804688 757.299804688 l 1
 799.849609375 314.599609375 l 1
 799.849609375 306.049804688 l 1
 886.299804688 -140.450195312 l 1
 884.400390625 -144.25 l 2
 870.150390625 -147.099609375 854.950195312 -148.049804688 840.700195312 -151.849609375 c 0
 809.349609375 -159.450195312 774.200195312 -169.900390625 740.950195312 -174.650390625 c 0
 739.049804688 -174.650390625 736.200195312 -175.599609375 734.299804688 -174.650390625 c 2
 664 174 l 2
 657.349609375 199.650390625 641.200195312 221.5 612.700195312 224.349609375 c 2
 343.849609375 224.349609375 l 2
 322 225.299804688 294.450195312 194.900390625 294.450195312 174 c 2
 294.450195312 -176.549804688 l 1
 137.700195312 -176.549804688 l 1
 137.700195312 788.650390625 l 1
 139.599609375 790.549804688 l 1
 292.549804688 790.549804688 l 1
 294.450195312 788.650390625 l 1
 294.450195312 439.049804688 l 1
 294.450195312 438.099609375 l 2xb4
EndSplineSet
Validated: 33
EndChar

StartChar: O
Encoding: 79 79 3
Width: 1024
Flags: W
HStem: -176.55 158.649<297.756 727.716> 627.15 163.399<295.941 729.56>
VStem: 110.15 161.5<7.30139 602.859> 754.25 159.6<9.01082 602.569>
LayerCount: 3
Fore
SplineSet
815.049804688 790.549804688 m 6
 825.5 787.700195312 835 786.75 845.450195312 782.950195312 c 4
 876.799804688 770.599609375 901.5 742.099609375 910.049804688 709.799804688 c 4
 911.950195312 704.099609375 911.950195312 697.450195312 913.849609375 692.700195312 c 6
 913.849609375 -78.7001953125 l 6
 910.049804688 -101.5 901.5 -123.349609375 886.299804688 -140.450195312 c 4
 868.25 -160.400390625 841.650390625 -171.799804688 816 -176.549804688 c 6
 208 -176.549804688 l 6
 156.700195312 -169.900390625 116.799804688 -130.950195312 110.150390625 -79.650390625 c 6
 110.150390625 690.799804688 l 6
 113.950195312 741.150390625 157.650390625 785.799804688 208 790.549804688 c 6
 815.049804688 790.549804688 l 6
340.049804688 627.150390625 m 5
 304.900390625 621.450195312 277.349609375 593.900390625 271.650390625 558.75 c 6
 271.650390625 54.2998046875 l 6
 275.450195312 17.25 306.799804688 -13.150390625 343.849609375 -17.900390625 c 6
 679.200195312 -17.900390625 l 6
 719.099609375 -14.099609375 750.450195312 18.2001953125 754.25 57.150390625 c 6
 754.25 553.049804688 l 6
 750.450195312 591.049804688 721.950195312 622.400390625 683.950195312 627.150390625 c 6
 340.049804688 627.150390625 l 5
EndSplineSet
Validated: 5
EndChar

StartChar: P
Encoding: 80 80 4
Width: 1024
Flags: W
HStem: -176.55 21G<96.5928 261.893> -176.55 21G<96.5928 261.893> 218.65 159.6<282.86 739.268> 626.2 164.35<280.839 739.2>
VStem: 96.5928 165.3<-176.55 209.445 398.675 607.2> 756.843 168.15<396.085 608.868>
LayerCount: 3
Fore
SplineSet
849.943359375 790.549804688 m 2xbc
 876.54296875 785.799804688 899.342773438 772.5 912.642578125 748.75 c 0
 921.193359375 734.5 924.04296875 718.349609375 924.993164062 702.200195312 c 0
 932.592773438 573 919.29296875 437.150390625 924.993164062 307 c 0
 924.04296875 266.150390625 898.392578125 231.950195312 859.443359375 221.5 c 0
 676.092773438 215.799804688 491.79296875 219.599609375 308.443359375 218.650390625 c 0
 287.54296875 216.75 264.743164062 197.75 261.892578125 175.900390625 c 0
 257.142578125 130.299804688 264.743164062 76.150390625 260.943359375 29.599609375 c 0
 261.892578125 -35.9501953125 263.79296875 -103.400390625 261.892578125 -168.950195312 c 0
 261.892578125 -171.799804688 262.842773438 -174.650390625 260.943359375 -176.549804688 c 2
 96.5927734375 -176.549804688 l 1
 96.5927734375 712.650390625 l 2
 100.392578125 751.599609375 132.693359375 786.75 171.642578125 790.549804688 c 2
 849.943359375 790.549804688 l 2xbc
325.54296875 626.200195312 m 1
 292.29296875 623.349609375 267.592773438 598.650390625 264.743164062 565.400390625 c 0
 261.892578125 532.150390625 261.892578125 475.150390625 264.743164062 441.900390625 c 0
 267.592773438 408.650390625 292.29296875 381.099609375 326.493164062 378.25 c 2
 696.04296875 378.25 l 2
 733.092773438 383.950195312 753.993164062 408.650390625 756.842773438 445.700195312 c 0
 758.743164062 478 758.743164062 527.400390625 756.842773438 559.700195312 c 0
 753.993164062 597.700195312 731.193359375 622.400390625 693.193359375 626.200195312 c 2
 325.54296875 626.200195312 l 1
EndSplineSet
Validated: 33
EndChar

StartChar: L
Encoding: 76 76 5
Width: 1024
Flags: W
HStem: -176.55 160.55<288.375 910.05> 770.55 20G<112.05 272.6> 770.55 20G<112.05 272.6>
VStem: 112.05 160.55<0.183499 790.55>
LayerCount: 3
Fore
SplineSet
272.599609375 790.549804688 m 1xd0
 272.599609375 41 l 2
 272.599609375 16.2998046875 303.950195312 -16 328.650390625 -16 c 2
 910.049804688 -16 l 1
 911.950195312 -17.900390625 l 1
 911.950195312 -176.549804688 l 1
 193.75 -176.549804688 l 2
 159.549804688 -176.549804688 112.049804688 -128.099609375 112.049804688 -93.900390625 c 2
 112.049804688 790.549804688 l 1
 272.599609375 790.549804688 l 1xd0
EndSplineSet
Validated: 1
EndChar

StartChar: C
Encoding: 67 67 6
Width: 1024
Flags: W
HStem: -176.55 164.35<293.351 910.525> 625.25 165.3<293.264 909.575>
VStem: 113.475 164.351<3.3579 610.625>
LayerCount: 3
Fore
SplineSet
909.575195312 790.549804688 m 1
 910.525390625 625.25 l 1
 329.125 625.25 l 2
 306.325195312 625.25 275.924804688 589.150390625 277.825195312 565.400390625 c 2
 277.825195312 50.5 l 2
 275.924804688 22.9501953125 305.375 -12.2001953125 332.924804688 -12.2001953125 c 2
 910.525390625 -12.2001953125 l 1
 910.525390625 -176.549804688 l 1
 216.075195312 -176.549804688 l 2
 193.275390625 -176.549804688 157.174804688 -152.799804688 142.924804688 -135.700195312 c 0
 125.825195312 -116.700195312 118.224609375 -94.849609375 113.474609375 -70.150390625 c 2
 113.474609375 683.200195312 l 2
 121.075195312 740.200195312 167.625 785.799804688 225.575195312 790.549804688 c 2
 909.575195312 790.549804688 l 1
EndSplineSet
Validated: 33
EndChar

StartChar: D
Encoding: 68 68 7
Width: 1024
Flags: W
HStem: -176.55 164.35<277.825 730.653> 625.25 165.3<277.825 731.023>
VStem: 113.475 164.351<-12.2002 625.25> 745.225 165.301<2.69918 610.669>
LayerCount: 3
Fore
SplineSet
800.325195312 790.549804688 m 0
 808.875 788.650390625 816.474609375 787.700195312 825.025390625 784.849609375 c 0
 864.924804688 773.450195312 897.224609375 739.25 906.724609375 698.400390625 c 0
 908.625 691.75 908.625 684.150390625 910.525390625 677.5 c 2
 910.525390625 -63.5 l 1
 904.825195312 -92.9501953125 l 2
 890.575195312 -137.599609375 851.625 -170.849609375 805.075195312 -176.549804688 c 2
 113.474609375 -176.549804688 l 1
 113.474609375 790.549804688 l 1
 800.325195312 790.549804688 l 0
277.825195312 -12.2001953125 m 1
 691.075195312 -12.2001953125 l 2
 715.775390625 -12.2001953125 746.174804688 19.150390625 745.224609375 44.7998046875 c 2
 745.224609375 572.049804688 l 2
 744.275390625 593.900390625 715.775390625 625.25 693.924804688 625.25 c 2
 277.825195312 625.25 l 1
 277.825195312 -12.2001953125 l 1
EndSplineSet
Validated: 33
EndChar

StartChar: N
Encoding: 78 78 8
Width: 1024
Flags: W
HStem: -176.55 21G<110.15 274.5> -176.55 21G<110.15 274.5> 626.2 164.35<289.9 734.149>
VStem: 110.15 164.35<-176.55 610.005> 748.55 165.3<-174.65 611.078>
LayerCount: 3
Fore
SplineSet
913.849609375 678.450195312 m 2xb8
 913.849609375 -174.650390625 l 1
 748.549804688 -174.650390625 l 1
 748.549804688 575.849609375 l 2
 748.549804688 596.75 715.299804688 627.150390625 693.450195312 626.200195312 c 2
 333.400390625 626.200195312 l 2
 303.950195312 625.25 274.5 595.799804688 274.5 566.349609375 c 2
 274.5 -176.549804688 l 1
 110.150390625 -176.549804688 l 1
 110.150390625 681.299804688 l 2
 116.799804688 737.349609375 158.599609375 782.950195312 215.599609375 790.549804688 c 2
 804.599609375 790.549804688 l 2
 863.5 785.799804688 909.099609375 736.400390625 913.849609375 678.450195312 c 2xb8
EndSplineSet
Validated: 33
EndChar

StartChar: U
Encoding: 85 85 9
Width: 1024
Flags: W
HStem: -176.55 166.25<290.276 734.363> 770.55 20G<110.15 276.4 748.55 913.85> 770.55 20G<110.15 276.4 748.55 913.85>
VStem: 110.15 166.25<3.73509 789.6> 748.55 165.3<4.44809 789.6>
LayerCount: 3
Fore
SplineSet
913.849609375 790.549804688 m 1xd8
 913.849609375 -65.400390625 l 2
 911.950195312 -73.9501953125 911 -82.5 908.150390625 -91.0498046875 c 0
 897.700195312 -127.150390625 869.200195312 -156.599609375 834.049804688 -168.950195312 c 2
 797.950195312 -176.549804688 l 1
 226.049804688 -176.549804688 l 2
 218.450195312 -174.650390625 211.799804688 -174.650390625 204.200195312 -172.75 c 0
 161.450195312 -164.200195312 125.349609375 -128.099609375 114.900390625 -86.2998046875 c 0
 113 -78.7001953125 112.049804688 -72.0498046875 110.150390625 -64.4501953125 c 2
 110.150390625 790.549804688 l 1
 276.400390625 789.599609375 l 1
 276.400390625 40.0498046875 l 2
 276.400390625 18.2001953125 310.599609375 -13.150390625 333.400390625 -10.2998046875 c 2
 696.299804688 -10.2998046875 l 2
 715.299804688 -10.2998046875 748.549804688 20.099609375 748.549804688 38.150390625 c 2
 748.549804688 789.599609375 l 1
 913.849609375 790.549804688 l 1xd8
EndSplineSet
Validated: 37
EndChar

StartChar: S
Encoding: 83 83 10
Width: 1024
Flags: W
HStem: -176.55 161.5<112.598 741.59> 228.15 160.55<283.216 741.569> 630.95 159.6<285.179 913.447>
VStem: 110.697 165.3<395.558 621.832> 749.098 164.35<-8.03858 220.507>
LayerCount: 3
Fore
SplineSet
913.447265625 790.549804688 m 2
 913.447265625 630.950195312 l 1
 324.447265625 630.950195312 l 2
 297.84765625 630.950195312 276.947265625 606.25 275.047851562 581.549804688 c 0
 271.247070312 534.049804688 278.84765625 481.799804688 275.997070312 434.299804688 c 0
 277.897460938 412.450195312 291.197265625 395.349609375 312.09765625 388.700195312 c 0
 490.697265625 384.900390625 671.197265625 387.75 850.747070312 386.799804688 c 0
 884.947265625 381.099609375 910.59765625 353.549804688 913.447265625 319.349609375 c 2
 913.447265625 -101.5 l 2
 910.59765625 -131.900390625 885.897460938 -162.299804688 856.447265625 -171.799804688 c 0
 848.84765625 -174.650390625 842.197265625 -174.650390625 834.59765625 -176.549804688 c 2
 112.59765625 -176.549804688 l 1
 110.697265625 -15.0498046875 l 1
 711.09765625 -15.0498046875 l 2
 712.997070312 -15.0498046875 724.397460938 -9.349609375 726.297851562 -8.400390625 c 0
 738.647460938 -0.7998046875 748.147460938 14.400390625 749.09765625 28.650390625 c 0
 753.84765625 79 746.247070312 135.049804688 749.09765625 185.400390625 c 0
 745.297851562 208.200195312 729.147460938 225.299804688 706.34765625 228.150390625 c 2
 189.547851562 228.150390625 l 2
 145.84765625 234.799804688 113.547851562 272.799804688 110.697265625 316.5 c 0
 111.647460938 443.799804688 108.797851562 571.099609375 112.59765625 697.450195312 c 0
 120.197265625 738.299804688 151.547851562 774.400390625 191.447265625 785.799804688 c 2
 213.297851562 790.549804688 l 1
 913.447265625 790.549804688 l 2
EndSplineSet
Validated: 33
EndChar

StartChar: A
Encoding: 65 65 11
Width: 1024
Flags: W
HStem: -176.55 21G<112.05 276.4 757.1 911.95> -176.55 21G<112.05 276.4 757.1 911.95> 216.75 164.35<292.305 729.732> 626.2 164.35<292.124 729.033>
VStem: 112.05 164.351<-176.55 201.825 396.532 610.778> 745.7 166.25<396.752 609.981> 757.1 154.851<-176.55 201.002>
LayerCount: 3
Fore
SplineSet
823.599609375 790.549804688 m 2xba
 864.450195312 782.950195312 897.700195312 755.400390625 908.150390625 714.549804688 c 0
 910.049804688 707.900390625 910.049804688 701.25 911.950195312 695.549804688 c 2
 911.950195312 -176.549804688 l 1
 757.099609375 -176.549804688 l 1
 757.099609375 163.549804688 l 2
 757.099609375 186.349609375 723.849609375 217.700195312 700.099609375 216.75 c 2
 329.599609375 216.75 l 2
 308.700195312 216.75 276.400390625 186.349609375 276.400390625 166.400390625 c 2
 276.400390625 -176.549804688 l 1
 112.049804688 -176.549804688 l 1
 112.049804688 703.150390625 l 2
 112.049804688 731.650390625 145.299804688 773.450195312 171.900390625 782.950195312 c 2
 200.400390625 790.549804688 l 1
 823.599609375 790.549804688 l 2xba
334.349609375 626.200195312 m 1
 303.950195312 623.349609375 281.150390625 599.599609375 276.400390625 569.200195312 c 0
 284.950195312 505.549804688 244.099609375 390.599609375 339.099609375 381.099609375 c 2
 683.950195312 381.099609375 l 2
 716.25 383.950195312 741.900390625 405.799804688 745.700195312 438.099609375 c 0x3c
 736.200195312 500.799804688 778 614.799804688 685.849609375 626.200195312 c 2
 334.349609375 626.200195312 l 1
EndSplineSet
Validated: 37
EndChar

StartChar: E
Encoding: 69 69 12
Width: 1024
Flags: W
HStem: -176.55 164.35<292.668 910.05> 226.25 164.35<294.081 910.05> 626.2 164.35<293.373 911.95>
VStem: 112.05 164.351<3.68638 210.401 407.865 609.903>
LayerCount: 3
Fore
SplineSet
911.950195312 790.549804688 m 1
 911.950195312 626.200195312 l 1
 334.349609375 626.200195312 l 2
 303 626.200195312 278.299804688 592 276.400390625 563.5 c 0
 274.5 533.099609375 274.5 482.75 276.400390625 452.349609375 c 0
 278.299804688 424.799804688 304.900390625 390.599609375 334.349609375 390.599609375 c 2
 911.950195312 390.599609375 l 1
 911.950195312 228.150390625 l 1
 910.049804688 226.25 l 1
 329.599609375 226.25 l 2
 307.75 226.25 283.049804688 197.75 278.299804688 177.799804688 c 0
 272.599609375 155 274.5 78.0498046875 276.400390625 51.4501953125 c 0
 278.299804688 27.7001953125 290.650390625 4.900390625 312.5 -5.5498046875 c 0
 316.299804688 -7.4501953125 327.700195312 -12.2001953125 331.5 -12.2001953125 c 2
 910.049804688 -12.2001953125 l 1
 911.950195312 -14.099609375 l 1
 911.950195312 -176.549804688 l 1
 214.650390625 -176.549804688 l 2
 168.099609375 -176.549804688 112.049804688 -115.75 112.049804688 -69.2001953125 c 2
 112.049804688 681.299804688 l 2
 115.849609375 731.650390625 151.950195312 773.450195312 200.400390625 786.75 c 2
 217.5 790.549804688 l 1
 911.950195312 790.549804688 l 1
EndSplineSet
Validated: 37
EndChar

StartChar: M
Encoding: 77 77 13
Width: 1024
Flags: W
HStem: -176.55 21G<31.2998 194.7 433.15 596.55 829.3 992.7> -176.55 21G<31.2998 194.7 433.15 596.55 829.3 992.7> 626.2 164.35<210.564 416.674 611.737 813.763>
VStem: 31.2998 163.4<-176.55 610.292> 433.15 163.399<-174.65 609.413> 829.3 163.4<-176.55 610.996>
LayerCount: 3
Fore
SplineSet
881.549804688 790.549804688 m 2xbc
 889.150390625 788.650390625 896.75 788.650390625 904.349609375 786.75 c 0
 944.25 776.299804688 992.700195312 729.75 992.700195312 687 c 2
 992.700195312 -176.549804688 l 1
 829.299804688 -176.549804688 l 1
 829.299804688 573 l 2
 829.299804688 576.799804688 822.650390625 591.049804688 820.75 594.849609375 c 0
 811.25 611 791.299804688 625.25 772.299804688 626.200195312 c 0
 740 628.099609375 683.950195312 629.049804688 652.599609375 626.200195312 c 0
 634.549804688 624.299804688 615.549804688 611.950195312 606.049804688 596.75 c 0
 604.150390625 592.950195312 596.549804688 577.75 596.549804688 573.950195312 c 2
 596.549804688 -174.650390625 l 1
 594.650390625 -176.549804688 l 1
 433.150390625 -176.549804688 l 1
 433.150390625 564.450195312 l 2
 433.150390625 593.900390625 405.599609375 623.349609375 376.150390625 626.200195312 c 0
 336.25 623.349609375 291.599609375 629.049804688 251.700195312 626.200195312 c 0
 226.049804688 624.299804688 194.700195312 596.75 194.700195312 570.150390625 c 2
 194.700195312 -176.549804688 l 1
 31.2998046875 -176.549804688 l 1
 31.2998046875 685.099609375 l 2
 38.900390625 742.099609375 85.4501953125 785.799804688 142.450195312 790.549804688 c 2
 881.549804688 790.549804688 l 2xbc
EndSplineSet
Validated: 33
EndChar

StartChar: W
Encoding: 87 87 14
Width: 1024
Flags: W
HStem: -176.55 164.35<208.872 411.748 607.447 814.87> 770.55 20G<30.3496 193.75 428.4 592.75 829.3 993.65> 770.55 20G<30.3496 193.75 428.4 592.75 829.3 993.65>
VStem: 30.3496 163.4<4.44989 790.55> 428.4 164.35<3.9531 790.55> 829.3 164.351<20.286 790.55>
LayerCount: 3
Fore
SplineSet
134.849609375 -176.549804688 m 1xdc
 88.2998046875 -173.700195312 30.349609375 -119.549804688 30.349609375 -73 c 2
 30.349609375 790.549804688 l 1
 193.75 790.549804688 l 1
 193.75 42.900390625 l 2
 193.75 14.400390625 227.950195312 -10.2998046875 254.549804688 -12.2001953125 c 0
 279.25 -14.099609375 360 -16 380.900390625 -10.2998046875 c 0
 406.549804688 -3.650390625 428.400390625 23.900390625 428.400390625 50.5 c 2
 428.400390625 790.549804688 l 1
 592.75 790.549804688 l 1
 592.75 39.099609375 l 2
 592.75 38.150390625 595.599609375 28.650390625 596.549804688 26.75 c 0
 606.049804688 4.900390625 628.849609375 -10.2998046875 652.599609375 -12.2001953125 c 0
 683.950195312 -15.0498046875 738.099609375 -15.0498046875 769.450195312 -12.2001953125 c 0
 791.299804688 -10.2998046875 811.25 1.099609375 821.700195312 20.099609375 c 0
 823.599609375 23.900390625 829.299804688 39.099609375 829.299804688 41.9501953125 c 2
 829.299804688 790.549804688 l 1
 993.650390625 790.549804688 l 1
 993.650390625 -73 l 2
 993.650390625 -78.7001953125 987 -96.75 985.099609375 -102.450195312 c 0
 969.900390625 -140.450195312 930 -172.75 889.150390625 -176.549804688 c 2
 134.849609375 -176.549804688 l 1xdc
EndSplineSet
Validated: 37
EndChar

StartChar: B
Encoding: 66 66 15
Width: 1024
Flags: W
HStem: -176.55 164.35<276.4 729.819> 222.45 164.35<276.4 729.482> 626.2 164.35<276.4 729.792>
VStem: 112.05 164.351<-12.2002 222.45 386.8 626.2> 745.7 166.25<2.77929 207.249 402.932 610.336>
LayerCount: 3
Fore
SplineSet
806.5 790.549804688 m 0
 853.049804688 782.950195312 894.849609375 749.700195312 907.200195312 703.150390625 c 0
 909.099609375 695.549804688 910.049804688 687.950195312 911.950195312 680.349609375 c 2
 911.950195312 -65.400390625 l 2
 910.049804688 -73 909.099609375 -79.650390625 907.200195312 -87.25 c 0
 895.799804688 -133.799804688 854 -170.849609375 805.549804688 -176.549804688 c 2
 112.049804688 -176.549804688 l 1
 112.049804688 790.549804688 l 1
 806.5 790.549804688 l 0
276.400390625 386.799804688 m 1
 683 386.799804688 l 2
 713.400390625 386.799804688 742.849609375 413.400390625 745.700195312 443.799804688 c 0
 742.849609375 484.650390625 749.5 529.299804688 745.700195312 569.200195312 c 0
 743.799804688 594.849609375 716.25 626.200195312 689.650390625 626.200195312 c 2
 276.400390625 626.200195312 l 1
 276.400390625 386.799804688 l 1
276.400390625 -12.2001953125 m 1
 692.5 -12.2001953125 l 2
 718.150390625 -12.2001953125 743.799804688 22 745.700195312 46.7001953125 c 0
 747.599609375 79 748.549804688 132.200195312 745.700195312 164.5 c 0
 743.799804688 187.299804688 719.099609375 222.450195312 694.400390625 222.450195312 c 2
 276.400390625 222.450195312 l 1
 276.400390625 -12.2001953125 l 1
EndSplineSet
Validated: 37
EndChar

StartChar: F
Encoding: 70 70 16
Width: 1024
Flags: W
HStem: -176.55 21G<112.05 278.3> -176.55 21G<112.05 278.3> 226.25 164.35<295.679 910.05> 626.2 164.35<293.898 911.95>
VStem: 112.05 166.25<-176.55 207.966 406.686 610.105>
LayerCount: 3
Fore
SplineSet
911.950195312 790.549804688 m 1xb8
 911.950195312 626.200195312 l 1
 332.450195312 626.200195312 l 2
 309.650390625 626.200195312 278.299804688 593.900390625 278.299804688 570.150390625 c 0
 281.150390625 530.25 274.5 485.599609375 278.299804688 446.650390625 c 0
 280.200195312 420.049804688 309.650390625 390.599609375 337.200195312 390.599609375 c 2
 911.950195312 390.599609375 l 1
 911.950195312 228.150390625 l 1
 910.049804688 226.25 l 1
 329.599609375 226.25 l 2
 322 226.25 301.099609375 213.900390625 295.400390625 208.200195312 c 0
 290.650390625 203.450195312 278.299804688 182.549804688 278.299804688 175.900390625 c 2
 278.299804688 -176.549804688 l 1
 112.049804688 -176.549804688 l 1
 112.049804688 683.200195312 l 2
 117.75 736.400390625 162.400390625 784.849609375 216.549804688 790.549804688 c 2
 911.950195312 790.549804688 l 1xb8
EndSplineSet
Validated: 33
EndChar

StartChar: H
Encoding: 72 72 17
Width: 1024
Flags: W
HStem: -176.55 21G<113.475 277.825 747.125 910.525> -176.55 21G<113.475 277.825 747.125 910.525> 228.15 156.75<294.322 730.619> 770.55 20G<113.475 277.825 747.125 910.525> 770.55 20G<113.475 277.825 747.125 910.525>
VStem: 113.475 164.351<-174.65 212.551 400.097 790.55> 747.125 163.4<-174.65 211.955 400.455 790.55>
LayerCount: 3
Fore
SplineSet
113.474609375 790.549804688 m 1xb6
 277.825195312 790.549804688 l 1
 277.825195312 443.799804688 l 2
 277.825195312 417.200195312 305.375 386.799804688 331.974609375 384.900390625 c 2
 694.875 385.849609375 l 2
 720.525390625 388.700195312 747.125 418.150390625 747.125 443.799804688 c 2
 747.125 790.549804688 l 1
 910.525390625 790.549804688 l 1
 910.525390625 -174.650390625 l 1
 747.125 -176.549804688 l 1
 747.125 168.299804688 l 2
 747.125 197.75 716.724609375 227.200195312 688.224609375 228.150390625 c 2
 331.974609375 228.150390625 l 2
 306.325195312 225.299804688 277.825195312 195.849609375 277.825195312 169.25 c 2
 277.825195312 -176.549804688 l 1
 113.474609375 -174.650390625 l 1
 113.474609375 790.549804688 l 1xb6
EndSplineSet
Validated: 5
EndChar

StartChar: I
Encoding: 73 73 18
Width: 1024
Flags: W
HStem: -176.55 21G<428.4 595.6> -176.55 21G<428.4 595.6> 770.55 20G<428.4 431.25 431.25 431.25 431.25 595.6> 770.55 20G<428.4 431.25 431.25 431.25 431.25 595.6> 789.6 21G<430.3 431.25 442.65 595.6> 789.6 21G<430.3 431.25 442.65 595.6>
VStem: 428.4 167.199<-176.55 789.6> 594.65 0.949219<-176.55 773.45>
LayerCount: 3
Fore
SplineSet
431.25 790.549804688 m 1x22
 442.650390625 790.549804688 l 1x22
 595.599609375 789.599609375 l 1
 595.599609375 773.450195312 l 1x0a
 594.650390625 -176.549804688 l 1x89
 430.299804688 -176.549804688 l 1
 428.400390625 783.900390625 l 1
 428.400390625 790.549804688 l 1
 430.299804688 790.549804688 l 1xa2
 431.25 789.599609375 l 1x0a
 431.25 790.549804688 l 1x22
430.299804688 -176.549804688 m 1x82
 428.400390625 -176.549804688 l 1
 428.400390625 783.900390625 l 1
 430.299804688 -176.549804688 l 1x82
595.599609375 773.450195312 m 1
 595.599609375 -176.549804688 l 1x82
 594.650390625 -176.549804688 l 1x81
 595.599609375 773.450195312 l 1
442.650390625 790.549804688 m 1x22
 595.599609375 790.549804688 l 1x21
 595.599609375 789.599609375 l 1x0a
 442.650390625 790.549804688 l 1x22
430.299804688 790.549804688 m 1
 431.25 790.549804688 l 1x20
 431.25 789.599609375 l 1x08
 430.299804688 790.549804688 l 1
EndSplineSet
Validated: 5
EndChar

StartChar: T
Encoding: 84 84 19
Width: 1024
Flags: W
HStem: -176.55 21G<326.75 491.1> -176.55 21G<326.75 491.1> 625.25 165.3<115.85 306.93 509.612 909.1>
VStem: 326.75 164.35<-176.55 605.062>
LayerCount: 3
Fore
SplineSet
909.099609375 790.549804688 m 1xb0
 909.099609375 625.25 l 1
 548.099609375 625.25 l 2
 527.200195312 625.25 491.099609375 590.099609375 491.099609375 569.200195312 c 2
 491.099609375 -176.549804688 l 1
 326.75 -176.549804688 l 1
 326.75 557.799804688 l 2
 326.75 585.349609375 296.349609375 625.25 267.849609375 625.25 c 2
 115.849609375 625.25 l 1
 114.900390625 790.549804688 l 1
 909.099609375 790.549804688 l 1xb0
EndSplineSet
Validated: 1
EndChar

StartChar: V
Encoding: 86 86 20
Width: 1024
Flags: W
HStem: -176.575 21G<242.2 420.8> -176.575 21G<242.2 420.8> 769.575 20G<130.1 295.4 735.14 787.183> 769.575 20G<130.1 295.4 735.14 787.183>
VStem: 130.1 165.301<-7.25206 788.625>
LayerCount: 3
Fore
SplineSet
130.099609375 789.575195312 m 1xa8
 295.400390625 788.625 l 1
 295.400390625 18.1748046875 l 2
 295.400390625 17.224609375 299.200195312 10.5751953125 300.150390625 8.6748046875 c 0
 315.349609375 -17.9248046875 356.200195312 -16.974609375 370.450195312 10.5751953125 c 2
 744.75 789.575195312 l 1
 893.900390625 719.275390625 l 1
 888.200195312 704.075195312 l 1
 495.849609375 -111.025390625 l 2
 479.700195312 -140.474609375 453.099609375 -163.275390625 420.799804688 -171.825195312 c 2
 392.299804688 -176.575195312 l 1
 246 -176.575195312 l 2
 238.400390625 -174.674804688 231.75 -174.674804688 224.150390625 -172.775390625 c 0
 182.349609375 -164.224609375 146.25 -129.075195312 134.849609375 -87.275390625 c 0
 132.950195312 -78.724609375 132 -71.125 130.099609375 -63.525390625 c 2
 130.099609375 789.575195312 l 1xa8
EndSplineSet
Validated: 37
EndChar

StartChar: Q
Encoding: 81 81 21
Width: 1024
Flags: W
HStem: -176.69 164.159<298.31 621.782> 623.59 162.107<298.533 724.075>
VStem: 109.808 163.135<13.376 598.355> 750.031 164.161<-11.5049 598.524>
LayerCount: 3
Fore
SplineSet
799.280273438 785.697265625 m 2
 806.461914062 783.645507812 814.669921875 784.670898438 821.852539062 782.619140625 c 0
 864.943359375 773.385742188 914.192382812 726.189453125 914.192382812 680.01953125 c 2
 914.192382812 -12.53125 l 1
 750.03125 -11.5048828125 l 1
 750.03125 556.899414062 l 2
 750.03125 585.627929688 707.965820312 623.58984375 679.23828125 623.58984375 c 2
 346.814453125 623.58984375 l 2
 306.799804688 619.485351562 276.01953125 588.706054688 272.942382812 548.69140625 c 2
 272.942382812 65.4453125 l 2
 274.993164062 25.431640625 304.748046875 -7.400390625 344.76171875 -12.53125 c 2
 641.276367188 -12.53125 l 2
 655.640625 -14.58203125 668.978515625 -18.6865234375 680.263671875 -26.89453125 c 2
 797.228515625 -141.805664062 l 1
 681.290039062 -257.744140625 l 1
 615.625976562 -193.106445312 l 2
 605.366210938 -185.924804688 595.106445312 -180.793945312 582.793945312 -178.743164062 c 0
 461.7265625 -174.638671875 339.631835938 -177.716796875 217.538085938 -176.690429688 c 0
 170.342773438 -171.560546875 127.25 -137.703125 113.912109375 -91.5322265625 c 0
 111.859375 -84.3505859375 111.859375 -78.1943359375 109.807617188 -71.0126953125 c 2
 109.807617188 680.01953125 l 2
 118.016601562 738.501953125 165.211914062 781.59375 223.693359375 785.697265625 c 2
 799.280273438 785.697265625 l 2
EndSplineSet
Validated: 33
EndChar

StartChar: Y
Encoding: 89 89 22
Width: 1024
Flags: W
HStem: -176.55 21G<329.6 493.95> -176.55 21G<329.6 493.95> 218.65 160.55<282.609 319.5 502.905 741.28> 770.55 20G<98.75 266.9 757.1 925.25> 770.55 20G<98.75 266.9 757.1 925.25>
VStem: 98.75 168.15<395.178 790.55> 329.6 164.351<-174.65 208.289> 757.1 168.15<394.895 790.55>
LayerCount: 3
Fore
SplineSet
98.75 790.549804688 m 1xb7
 266.900390625 790.549804688 l 1
 266.900390625 433.349609375 l 2
 266.900390625 408.650390625 303 377.299804688 327.700195312 378.25 c 2
 700.099609375 379.200195312 l 2
 722.900390625 379.200195312 757.099609375 408.650390625 757.099609375 431.450195312 c 2
 757.099609375 790.549804688 l 1
 925.25 790.549804688 l 1
 925.25 323.150390625 l 2
 923.349609375 318.400390625 923.349609375 312.700195312 921.450195312 307 c 0
 908.150390625 258.549804688 866.349609375 223.400390625 816.950195312 218.650390625 c 2
 539.549804688 218.650390625 l 2
 521.5 219.599609375 493.950195312 193.950195312 493.950195312 176.849609375 c 2
 493.950195312 -174.650390625 l 1
 492.049804688 -176.549804688 l 1
 329.599609375 -176.549804688 l 1
 329.599609375 170.200195312 l 2
 329.599609375 194.900390625 303.950195312 216.75 280.200195312 218.650390625 c 0
 220.349609375 223.400390625 174.75 205.349609375 128.200195312 258.549804688 c 0
 112.049804688 277.549804688 103.5 300.349609375 98.75 325.049804688 c 2
 98.75 790.549804688 l 1xb7
EndSplineSet
Validated: 37
EndChar

StartChar: G
Encoding: 71 71 23
Width: 1024
Flags: W
HStem: -176.55 164.35<294.997 729.35> 627.15 163.399<295.888 910.452>
VStem: 113.402 164.351<4.37156 610.427> 745.152 165.3<3.71265 279.767>
LayerCount: 3
Fore
SplineSet
910.452148438 790.549804688 m 1
 910.452148438 627.150390625 l 1
 334.752929688 627.150390625 l 2
 306.252929688 627.150390625 275.852539062 589.150390625 277.752929688 560.650390625 c 2
 277.752929688 50.5 l 2
 281.552734375 13.4501953125 306.252929688 -9.349609375 343.302734375 -12.2001953125 c 0
 453.502929688 -6.5 570.352539062 -18.849609375 679.602539062 -12.2001953125 c 0
 711.90234375 -10.2998046875 741.352539062 9.650390625 745.15234375 43.849609375 c 0
 749.90234375 96.099609375 741.352539062 156.900390625 745.15234375 210.099609375 c 0
 747.052734375 218.650390625 747.052734375 228.150390625 745.15234375 236.700195312 c 0
 737.552734375 281.349609375 691.002929688 305.099609375 665.352539062 339.299804688 c 1
 781.252929688 454.25 l 1
 891.452148438 344.049804688 l 2
 900.002929688 333.599609375 904.752929688 321.25 908.552734375 308.900390625 c 0
 912.352539062 185.400390625 909.502929688 60 910.452148438 -64.4501953125 c 0
 905.702148438 -122.400390625 860.102539062 -169.900390625 802.15234375 -176.549804688 c 2
 221.702148438 -176.549804688 l 2
 172.302734375 -171.799804688 130.502929688 -136.650390625 118.15234375 -88.2001953125 c 0
 116.252929688 -81.5498046875 115.302734375 -73.9501953125 113.40234375 -67.2998046875 c 2
 113.40234375 682.25 l 2
 118.15234375 735.450195312 163.752929688 784.849609375 217.90234375 790.549804688 c 2
 910.452148438 790.549804688 l 1
EndSplineSet
Validated: 33
EndChar

StartChar: J
Encoding: 74 74 24
Width: 1024
Flags: W
HStem: -176.55 164.35<291.244 734.918> 770.55 20G<750.925 910.525> 770.55 20G<750.925 910.525>
VStem: 750.925 159.601<3.78474 790.55>
LayerCount: 3
Fore
SplineSet
268.325195312 -176.549804688 m 2xd0
 252.174804688 -172.75 236.974609375 -168 223.674804688 -156.599609375 c 2
 113.474609375 -46.400390625 l 1
 229.375 69.5 l 1
 246.474609375 54.2998046875 263.575195312 37.2001953125 279.724609375 21.0498046875 c 0
 298.724609375 3 309.174804688 -10.2998046875 337.674804688 -12.2001953125 c 2
 695.825195312 -12.2001953125 l 2
 718.625 -11.25 750.924804688 19.150390625 750.924804688 41.9501953125 c 2
 750.924804688 790.549804688 l 1
 910.525390625 790.549804688 l 1
 910.525390625 -94.849609375 l 2
 910.525390625 -98.650390625 902.924804688 -118.599609375 901.025390625 -123.349609375 c 0
 887.724609375 -150.900390625 854.474609375 -173.700195312 824.075195312 -176.549804688 c 2
 268.325195312 -176.549804688 l 2xd0
EndSplineSet
Validated: 1
EndChar

StartChar: Z
Encoding: 90 90 25
Width: 1024
Flags: W
HStem: -176.55 161.5<280.908 911.313> 630.95 159.6<112.363 742.104>
LayerCount: 3
Fore
SplineSet
219.713867188 -176.549804688 m 1
 163.6640625 -168.950195312 119.963867188 -125.25 114.263671875 -68.25 c 0
 123.763671875 14.400390625 84.8134765625 124.599609375 164.61328125 179.700195312 c 2
 409.713867188 338.349609375 l 1
 378.36328125 385.849609375 l 1
 515.1640625 475.150390625 l 2
 517.063476562 475.150390625 518.013671875 473.25 518.963867188 472.299804688 c 0
 529.4140625 460.900390625 537.963867188 440.950195312 547.463867188 428.599609375 c 2
 735.563476562 552.099609375 l 2
 751.713867188 569.200195312 750.763671875 606.25 732.713867188 621.450195312 c 0
 729.86328125 624.299804688 716.563476562 630.950195312 712.763671875 630.950195312 c 2
 112.36328125 630.950195312 l 1
 112.36328125 790.549804688 l 1
 805.86328125 790.549804688 l 2
 816.313476562 790.549804688 841.013671875 781.049804688 850.513671875 775.349609375 c 0
 940.763671875 724.049804688 901.813476562 606.25 910.36328125 521.700195312 c 0
 906.563476562 487.5 888.513671875 456.150390625 860.963867188 436.200195312 c 2
 636.763671875 292.75 l 1
 668.11328125 244.299804688 l 1
 531.313476562 155 l 1
 500.9140625 199.650390625 l 1
 496.1640625 200.599609375 l 1
 290.013671875 65.7001953125 l 2
 273.86328125 49.5498046875 271.963867188 12.5 288.11328125 -3.650390625 c 0
 290.963867188 -6.5 305.213867188 -15.0498046875 308.063476562 -15.0498046875 c 2
 911.313476562 -15.0498046875 l 1
 911.313476562 -176.549804688 l 1
 219.713867188 -176.549804688 l 1
EndSplineSet
Validated: 37
EndChar

StartChar: R
Encoding: 82 82 26
Width: 1024
Flags: W
HStem: -176.55 21G<113.475 273.075> -176.55 21G<113.475 273.075> 626.2 164.35<289.082 734.922>
VStem: 113.475 159.601<-176.55 610.215>
LayerCount: 3
Fore
SplineSet
757.575195312 790.549804688 m 2xb0
 772.775390625 786.75 787.974609375 782 800.325195312 771.549804688 c 2
 910.525390625 661.349609375 l 1
 795.575195312 544.5 l 1
 762.325195312 572.049804688 733.825195312 621.450195312 687.275390625 626.200195312 c 2
 328.174804688 626.200195312 l 2
 305.375 625.25 273.075195312 594.849609375 273.075195312 572.049804688 c 2
 273.075195312 -176.549804688 l 1
 113.474609375 -176.549804688 l 1
 113.474609375 707.900390625 l 2
 113.474609375 746.849609375 160.974609375 786.75 198.025390625 790.549804688 c 2
 757.575195312 790.549804688 l 2xb0
EndSplineSet
Validated: 1
EndChar

StartChar: X
Encoding: 88 88 27
Width: 1024
Flags: W
HStem: -175.6 21G<127.2 167.2 856.8 896.8> -175.6 21G<127.2 167.2 856.8 896.8> 769.6 20G<127.038 167.2 856.8 896.962> 769.6 20G<127.038 167.2 856.8 896.962>
LayerCount: 3
Fore
SplineSet
147.200195312 789.599609375 m 1xa0
 460.700195312 476.099609375 l 2
 490.150390625 452.349609375 533.849609375 452.349609375 563.299804688 476.099609375 c 2
 876.799804688 789.599609375 l 1
 994.599609375 672.75 l 1
 680.150390625 358.299804688 l 2
 656.400390625 328.849609375 656.400390625 285.150390625 680.150390625 255.700195312 c 2
 994.599609375 -57.7998046875 l 1
 876.799804688 -175.599609375 l 1
 564.25 136.950195312 l 2
 532.900390625 162.599609375 491.099609375 162.599609375 459.75 136.950195312 c 2
 147.200195312 -175.599609375 l 1
 29.400390625 -57.7998046875 l 1
 343.849609375 255.700195312 l 2
 367.599609375 285.150390625 367.599609375 328.849609375 343.849609375 358.299804688 c 2
 29.400390625 672.75 l 1
 147.200195312 789.599609375 l 1xa0
EndSplineSet
Validated: 33
EndChar

StartChar: a
Encoding: 97 97 28
Width: 1024
Flags: W
HStem: -176.55 21G<112.05 276.4 757.1 911.95> -176.55 21G<112.05 276.4 757.1 911.95> 216.75 164.35<292.305 729.732> 626.2 164.35<292.124 729.033>
VStem: 112.05 164.351<-176.55 201.825 396.532 610.778> 745.7 166.25<396.752 609.981> 757.1 154.851<-176.55 201.002>
LayerCount: 3
Fore
SplineSet
823.599609375 790.549804688 m 2xba
 864.450195312 782.950195312 897.700195312 755.400390625 908.150390625 714.549804688 c 0
 910.049804688 707.900390625 910.049804688 701.25 911.950195312 695.549804688 c 2
 911.950195312 -176.549804688 l 1
 757.099609375 -176.549804688 l 1
 757.099609375 163.549804688 l 2
 757.099609375 186.349609375 723.849609375 217.700195312 700.099609375 216.75 c 2
 329.599609375 216.75 l 2
 308.700195312 216.75 276.400390625 186.349609375 276.400390625 166.400390625 c 2
 276.400390625 -176.549804688 l 1
 112.049804688 -176.549804688 l 1
 112.049804688 703.150390625 l 2
 112.049804688 731.650390625 145.299804688 773.450195312 171.900390625 782.950195312 c 2
 200.400390625 790.549804688 l 1
 823.599609375 790.549804688 l 2xba
334.349609375 626.200195312 m 1
 303.950195312 623.349609375 281.150390625 599.599609375 276.400390625 569.200195312 c 0
 284.950195312 505.549804688 244.099609375 390.599609375 339.099609375 381.099609375 c 2
 683.950195312 381.099609375 l 2
 716.25 383.950195312 741.900390625 405.799804688 745.700195312 438.099609375 c 0x3c
 736.200195312 500.799804688 778 614.799804688 685.849609375 626.200195312 c 2
 334.349609375 626.200195312 l 1
EndSplineSet
Validated: 37
EndChar

StartChar: b
Encoding: 98 98 29
Width: 1024
Flags: W
HStem: -176.55 164.35<276.4 729.819> 222.45 164.35<276.4 729.482> 626.2 164.35<276.4 729.792>
VStem: 112.05 164.351<-12.2002 222.45 386.8 626.2> 745.7 166.25<2.77929 207.249 402.932 610.336>
LayerCount: 3
Fore
SplineSet
806.5 790.549804688 m 0
 853.049804688 782.950195312 894.849609375 749.700195312 907.200195312 703.150390625 c 0
 909.099609375 695.549804688 910.049804688 687.950195312 911.950195312 680.349609375 c 2
 911.950195312 -65.400390625 l 2
 910.049804688 -73 909.099609375 -79.650390625 907.200195312 -87.25 c 0
 895.799804688 -133.799804688 854 -170.849609375 805.549804688 -176.549804688 c 2
 112.049804688 -176.549804688 l 1
 112.049804688 790.549804688 l 1
 806.5 790.549804688 l 0
276.400390625 386.799804688 m 1
 683 386.799804688 l 2
 713.400390625 386.799804688 742.849609375 413.400390625 745.700195312 443.799804688 c 0
 742.849609375 484.650390625 749.5 529.299804688 745.700195312 569.200195312 c 0
 743.799804688 594.849609375 716.25 626.200195312 689.650390625 626.200195312 c 2
 276.400390625 626.200195312 l 1
 276.400390625 386.799804688 l 1
276.400390625 -12.2001953125 m 1
 692.5 -12.2001953125 l 2
 718.150390625 -12.2001953125 743.799804688 22 745.700195312 46.7001953125 c 0
 747.599609375 79 748.549804688 132.200195312 745.700195312 164.5 c 0
 743.799804688 187.299804688 719.099609375 222.450195312 694.400390625 222.450195312 c 2
 276.400390625 222.450195312 l 1
 276.400390625 -12.2001953125 l 1
EndSplineSet
Validated: 37
EndChar

StartChar: c
Encoding: 99 99 30
Width: 1024
Flags: W
HStem: -176.55 164.35<293.351 910.525> 625.25 165.3<293.264 909.575>
VStem: 113.475 164.351<3.3579 610.625>
LayerCount: 3
Fore
SplineSet
909.575195312 790.549804688 m 1
 910.525390625 625.25 l 1
 329.125 625.25 l 2
 306.325195312 625.25 275.924804688 589.150390625 277.825195312 565.400390625 c 2
 277.825195312 50.5 l 2
 275.924804688 22.9501953125 305.375 -12.2001953125 332.924804688 -12.2001953125 c 2
 910.525390625 -12.2001953125 l 1
 910.525390625 -176.549804688 l 1
 216.075195312 -176.549804688 l 2
 193.275390625 -176.549804688 157.174804688 -152.799804688 142.924804688 -135.700195312 c 0
 125.825195312 -116.700195312 118.224609375 -94.849609375 113.474609375 -70.150390625 c 2
 113.474609375 683.200195312 l 2
 121.075195312 740.200195312 167.625 785.799804688 225.575195312 790.549804688 c 2
 909.575195312 790.549804688 l 1
EndSplineSet
Validated: 33
EndChar

StartChar: d
Encoding: 100 100 31
Width: 1024
Flags: W
HStem: -176.55 164.35<277.825 730.653> 625.25 165.3<277.825 731.023>
VStem: 113.475 164.351<-12.2002 625.25> 745.225 165.301<2.69918 610.669>
LayerCount: 3
Fore
SplineSet
800.325195312 790.549804688 m 0
 808.875 788.650390625 816.474609375 787.700195312 825.025390625 784.849609375 c 0
 864.924804688 773.450195312 897.224609375 739.25 906.724609375 698.400390625 c 0
 908.625 691.75 908.625 684.150390625 910.525390625 677.5 c 2
 910.525390625 -63.5 l 1
 904.825195312 -92.9501953125 l 2
 890.575195312 -137.599609375 851.625 -170.849609375 805.075195312 -176.549804688 c 2
 113.474609375 -176.549804688 l 1
 113.474609375 790.549804688 l 1
 800.325195312 790.549804688 l 0
277.825195312 -12.2001953125 m 1
 691.075195312 -12.2001953125 l 2
 715.775390625 -12.2001953125 746.174804688 19.150390625 745.224609375 44.7998046875 c 2
 745.224609375 572.049804688 l 2
 744.275390625 593.900390625 715.775390625 625.25 693.924804688 625.25 c 2
 277.825195312 625.25 l 1
 277.825195312 -12.2001953125 l 1
EndSplineSet
Validated: 33
EndChar

StartChar: e
Encoding: 101 101 32
Width: 1024
Flags: W
HStem: -176.55 164.35<292.668 910.05> 226.25 164.35<294.081 910.05> 626.2 164.35<293.373 911.95>
VStem: 112.05 164.351<3.68638 210.401 407.865 609.903>
LayerCount: 3
Fore
SplineSet
911.950195312 790.549804688 m 1
 911.950195312 626.200195312 l 1
 334.349609375 626.200195312 l 2
 303 626.200195312 278.299804688 592 276.400390625 563.5 c 0
 274.5 533.099609375 274.5 482.75 276.400390625 452.349609375 c 0
 278.299804688 424.799804688 304.900390625 390.599609375 334.349609375 390.599609375 c 2
 911.950195312 390.599609375 l 1
 911.950195312 228.150390625 l 1
 910.049804688 226.25 l 1
 329.599609375 226.25 l 2
 307.75 226.25 283.049804688 197.75 278.299804688 177.799804688 c 0
 272.599609375 155 274.5 78.0498046875 276.400390625 51.4501953125 c 0
 278.299804688 27.7001953125 290.650390625 4.900390625 312.5 -5.5498046875 c 0
 316.299804688 -7.4501953125 327.700195312 -12.2001953125 331.5 -12.2001953125 c 2
 910.049804688 -12.2001953125 l 1
 911.950195312 -14.099609375 l 1
 911.950195312 -176.549804688 l 1
 214.650390625 -176.549804688 l 2
 168.099609375 -176.549804688 112.049804688 -115.75 112.049804688 -69.2001953125 c 2
 112.049804688 681.299804688 l 2
 115.849609375 731.650390625 151.950195312 773.450195312 200.400390625 786.75 c 2
 217.5 790.549804688 l 1
 911.950195312 790.549804688 l 1
EndSplineSet
Validated: 37
EndChar

StartChar: f
Encoding: 102 102 33
Width: 1024
Flags: W
HStem: -176.55 21G<112.05 278.3> -176.55 21G<112.05 278.3> 226.25 164.35<295.679 910.05> 626.2 164.35<293.898 911.95>
VStem: 112.05 166.25<-176.55 207.966 406.686 610.105>
LayerCount: 3
Fore
SplineSet
911.950195312 790.549804688 m 1xb8
 911.950195312 626.200195312 l 1
 332.450195312 626.200195312 l 2
 309.650390625 626.200195312 278.299804688 593.900390625 278.299804688 570.150390625 c 0
 281.150390625 530.25 274.5 485.599609375 278.299804688 446.650390625 c 0
 280.200195312 420.049804688 309.650390625 390.599609375 337.200195312 390.599609375 c 2
 911.950195312 390.599609375 l 1
 911.950195312 228.150390625 l 1
 910.049804688 226.25 l 1
 329.599609375 226.25 l 2
 322 226.25 301.099609375 213.900390625 295.400390625 208.200195312 c 0
 290.650390625 203.450195312 278.299804688 182.549804688 278.299804688 175.900390625 c 2
 278.299804688 -176.549804688 l 1
 112.049804688 -176.549804688 l 1
 112.049804688 683.200195312 l 2
 117.75 736.400390625 162.400390625 784.849609375 216.549804688 790.549804688 c 2
 911.950195312 790.549804688 l 1xb8
EndSplineSet
Validated: 33
EndChar

StartChar: g
Encoding: 103 103 34
Width: 1024
Flags: W
HStem: -176.55 164.35<294.997 729.35> 627.15 163.399<295.888 910.452>
VStem: 113.402 164.351<4.37156 610.427> 745.152 165.3<3.71265 279.767>
LayerCount: 3
Fore
SplineSet
910.452148438 790.549804688 m 1
 910.452148438 627.150390625 l 1
 334.752929688 627.150390625 l 2
 306.252929688 627.150390625 275.852539062 589.150390625 277.752929688 560.650390625 c 2
 277.752929688 50.5 l 2
 281.552734375 13.4501953125 306.252929688 -9.349609375 343.302734375 -12.2001953125 c 0
 453.502929688 -6.5 570.352539062 -18.849609375 679.602539062 -12.2001953125 c 0
 711.90234375 -10.2998046875 741.352539062 9.650390625 745.15234375 43.849609375 c 0
 749.90234375 96.099609375 741.352539062 156.900390625 745.15234375 210.099609375 c 0
 747.052734375 218.650390625 747.052734375 228.150390625 745.15234375 236.700195312 c 0
 737.552734375 281.349609375 691.002929688 305.099609375 665.352539062 339.299804688 c 1
 781.252929688 454.25 l 1
 891.452148438 344.049804688 l 2
 900.002929688 333.599609375 904.752929688 321.25 908.552734375 308.900390625 c 0
 912.352539062 185.400390625 909.502929688 60 910.452148438 -64.4501953125 c 0
 905.702148438 -122.400390625 860.102539062 -169.900390625 802.15234375 -176.549804688 c 2
 221.702148438 -176.549804688 l 2
 172.302734375 -171.799804688 130.502929688 -136.650390625 118.15234375 -88.2001953125 c 0
 116.252929688 -81.5498046875 115.302734375 -73.9501953125 113.40234375 -67.2998046875 c 2
 113.40234375 682.25 l 2
 118.15234375 735.450195312 163.752929688 784.849609375 217.90234375 790.549804688 c 2
 910.452148438 790.549804688 l 1
EndSplineSet
Validated: 33
EndChar

StartChar: h
Encoding: 104 104 35
Width: 1024
Flags: W
LayerCount: 3
Fore
SplineSet
113.474609375 790.549804688 m 1xb6
 277.825195312 790.549804688 l 1
 277.825195312 443.799804688 l 2
 277.825195312 417.200195312 305.375 386.799804688 331.974609375 384.900390625 c 2
 694.875 385.849609375 l 2
 720.525390625 388.700195312 747.125 418.150390625 747.125 443.799804688 c 2
 747.125 790.549804688 l 1
 910.525390625 790.549804688 l 1
 910.525390625 -174.650390625 l 1
 747.125 -176.549804688 l 1
 747.125 168.299804688 l 2
 747.125 197.75 716.724609375 227.200195312 688.224609375 228.150390625 c 2
 331.974609375 228.150390625 l 2
 306.325195312 225.299804688 277.825195312 195.849609375 277.825195312 169.25 c 2
 277.825195312 -176.549804688 l 1
 113.474609375 -174.650390625 l 1
 113.474609375 790.549804688 l 1xb6
EndSplineSet
EndChar

StartChar: i
Encoding: 105 105 36
Width: 512
Flags: HWO
LayerCount: 3
Fore
SplineSet
175.25 790.549804688 m 1x22
 186.650390625 790.549804688 l 1x22
 339.599609375 789.599609375 l 1
 339.599609375 773.450195312 l 1x0a
 338.650390625 -176.549804688 l 1x89
 174.299804688 -176.549804688 l 1
 172.400390625 783.900390625 l 1
 172.400390625 790.549804688 l 1
 174.299804688 790.549804688 l 1xa2
 175.25 789.599609375 l 1x0a
 175.25 790.549804688 l 1x22
174.299804688 -176.549804688 m 1x82
 172.400390625 -176.549804688 l 1
 172.400390625 783.900390625 l 1
 174.299804688 -176.549804688 l 1x82
339.599609375 773.450195312 m 1
 339.599609375 -176.549804688 l 1x82
 338.650390625 -176.549804688 l 1x81
 339.599609375 773.450195312 l 1
186.650390625 790.549804688 m 1x22
 339.599609375 790.549804688 l 1x21
 339.599609375 789.599609375 l 1x0a
 186.650390625 790.549804688 l 1x22
174.299804688 790.549804688 m 1
 175.25 790.549804688 l 1x20
 175.25 789.599609375 l 1x08
 174.299804688 790.549804688 l 1
EndSplineSet
EndChar

StartChar: j
Encoding: 106 106 37
Width: 1024
Flags: W
LayerCount: 3
Fore
SplineSet
268.325195312 -176.549804688 m 2xd0
 252.174804688 -172.75 236.974609375 -168 223.674804688 -156.599609375 c 2
 113.474609375 -46.400390625 l 1
 229.375 69.5 l 1
 246.474609375 54.2998046875 263.575195312 37.2001953125 279.724609375 21.0498046875 c 0
 298.724609375 3 309.174804688 -10.2998046875 337.674804688 -12.2001953125 c 2
 695.825195312 -12.2001953125 l 2
 718.625 -11.25 750.924804688 19.150390625 750.924804688 41.9501953125 c 2
 750.924804688 790.549804688 l 1
 910.525390625 790.549804688 l 1
 910.525390625 -94.849609375 l 2
 910.525390625 -98.650390625 902.924804688 -118.599609375 901.025390625 -123.349609375 c 0
 887.724609375 -150.900390625 854.474609375 -173.700195312 824.075195312 -176.549804688 c 2
 268.325195312 -176.549804688 l 2xd0
EndSplineSet
EndChar

StartChar: k
Encoding: 107 107 38
Width: 1024
Flags: W
HStem: -176.55 21G<137.7 294.45> -176.55 21G<137.7 294.45> 224.35 163.4<321.362 651.001> 769.6 20.9502G<137.7 294.45 730.321 828.418> 769.6 20.9502G<137.7 294.45 730.321 828.418>
VStem: 137.7 156.75<-176.55 212.725 400.349 788.65>
LayerCount: 3
Fore
SplineSet
294.450195312 438.099609375 m 2xb4
 296.349609375 422.900390625 307.75 405.799804688 321.049804688 397.25 c 0
 327.700195312 393.450195312 335.299804688 391.549804688 341 387.75 c 2
 616.5 387.75 l 2
 619.349609375 391.549804688 622.200195312 390.599609375 626 392.5 c 0
 647.849609375 401.049804688 657.349609375 414.349609375 664 436.200195312 c 2
 734.299804688 789.599609375 l 1
 886.299804688 757.299804688 l 1
 799.849609375 314.599609375 l 1
 799.849609375 306.049804688 l 1
 886.299804688 -140.450195312 l 1
 884.400390625 -144.25 l 2
 870.150390625 -147.099609375 854.950195312 -148.049804688 840.700195312 -151.849609375 c 0
 809.349609375 -159.450195312 774.200195312 -169.900390625 740.950195312 -174.650390625 c 0
 739.049804688 -174.650390625 736.200195312 -175.599609375 734.299804688 -174.650390625 c 2
 664 174 l 2
 657.349609375 199.650390625 641.200195312 221.5 612.700195312 224.349609375 c 2
 343.849609375 224.349609375 l 2
 322 225.299804688 294.450195312 194.900390625 294.450195312 174 c 2
 294.450195312 -176.549804688 l 1
 137.700195312 -176.549804688 l 1
 137.700195312 788.650390625 l 1
 139.599609375 790.549804688 l 1
 292.549804688 790.549804688 l 1
 294.450195312 788.650390625 l 1
 294.450195312 439.049804688 l 1
 294.450195312 438.099609375 l 2xb4
EndSplineSet
Validated: 33
EndChar

StartChar: l
Encoding: 108 108 39
Width: 1024
Flags: W
HStem: -176.55 160.55<288.375 910.05> 770.55 20G<112.05 272.6> 770.55 20G<112.05 272.6>
VStem: 112.05 160.55<0.183499 790.55>
LayerCount: 3
Fore
SplineSet
272.599609375 790.549804688 m 1xd0
 272.599609375 41 l 2
 272.599609375 16.2998046875 303.950195312 -16 328.650390625 -16 c 2
 910.049804688 -16 l 1
 911.950195312 -17.900390625 l 1
 911.950195312 -176.549804688 l 1
 193.75 -176.549804688 l 2
 159.549804688 -176.549804688 112.049804688 -128.099609375 112.049804688 -93.900390625 c 2
 112.049804688 790.549804688 l 1
 272.599609375 790.549804688 l 1xd0
EndSplineSet
Validated: 1
EndChar

StartChar: m
Encoding: 109 109 40
Width: 1024
Flags: W
HStem: -176.55 21G<31.2998 194.7 433.15 596.55 829.3 992.7> -176.55 21G<31.2998 194.7 433.15 596.55 829.3 992.7> 626.2 164.35<210.564 416.674 611.737 813.763>
VStem: 31.2998 163.4<-176.55 610.292> 433.15 163.399<-174.65 609.413> 829.3 163.4<-176.55 610.996>
LayerCount: 3
Fore
SplineSet
881.549804688 790.549804688 m 2xbc
 889.150390625 788.650390625 896.75 788.650390625 904.349609375 786.75 c 0
 944.25 776.299804688 992.700195312 729.75 992.700195312 687 c 2
 992.700195312 -176.549804688 l 1
 829.299804688 -176.549804688 l 1
 829.299804688 573 l 2
 829.299804688 576.799804688 822.650390625 591.049804688 820.75 594.849609375 c 0
 811.25 611 791.299804688 625.25 772.299804688 626.200195312 c 0
 740 628.099609375 683.950195312 629.049804688 652.599609375 626.200195312 c 0
 634.549804688 624.299804688 615.549804688 611.950195312 606.049804688 596.75 c 0
 604.150390625 592.950195312 596.549804688 577.75 596.549804688 573.950195312 c 2
 596.549804688 -174.650390625 l 1
 594.650390625 -176.549804688 l 1
 433.150390625 -176.549804688 l 1
 433.150390625 564.450195312 l 2
 433.150390625 593.900390625 405.599609375 623.349609375 376.150390625 626.200195312 c 0
 336.25 623.349609375 291.599609375 629.049804688 251.700195312 626.200195312 c 0
 226.049804688 624.299804688 194.700195312 596.75 194.700195312 570.150390625 c 2
 194.700195312 -176.549804688 l 1
 31.2998046875 -176.549804688 l 1
 31.2998046875 685.099609375 l 2
 38.900390625 742.099609375 85.4501953125 785.799804688 142.450195312 790.549804688 c 2
 881.549804688 790.549804688 l 2xbc
EndSplineSet
Validated: 33
EndChar

StartChar: n
Encoding: 110 110 41
Width: 1024
Flags: W
HStem: -176.55 21G<110.15 274.5> -176.55 21G<110.15 274.5> 626.2 164.35<289.9 734.149>
VStem: 110.15 164.35<-176.55 610.005> 748.55 165.3<-174.65 611.078>
LayerCount: 3
Fore
SplineSet
913.849609375 678.450195312 m 2xb8
 913.849609375 -174.650390625 l 1
 748.549804688 -174.650390625 l 1
 748.549804688 575.849609375 l 2
 748.549804688 596.75 715.299804688 627.150390625 693.450195312 626.200195312 c 2
 333.400390625 626.200195312 l 2
 303.950195312 625.25 274.5 595.799804688 274.5 566.349609375 c 2
 274.5 -176.549804688 l 1
 110.150390625 -176.549804688 l 1
 110.150390625 681.299804688 l 2
 116.799804688 737.349609375 158.599609375 782.950195312 215.599609375 790.549804688 c 2
 804.599609375 790.549804688 l 2
 863.5 785.799804688 909.099609375 736.400390625 913.849609375 678.450195312 c 2xb8
EndSplineSet
Validated: 33
EndChar

StartChar: o
Encoding: 111 111 42
Width: 1024
Flags: W
HStem: -176.55 158.649<297.756 727.716> 627.15 163.399<295.941 729.56>
VStem: 110.15 161.5<7.30139 602.859> 754.25 159.6<9.01082 602.569>
LayerCount: 3
Fore
SplineSet
815.049804688 790.549804688 m 2
 825.5 787.700195312 835 786.75 845.450195312 782.950195312 c 0
 876.799804688 770.599609375 901.5 742.099609375 910.049804688 709.799804688 c 0
 911.950195312 704.099609375 911.950195312 697.450195312 913.849609375 692.700195312 c 2
 913.849609375 -78.7001953125 l 2
 910.049804688 -101.5 901.5 -123.349609375 886.299804688 -140.450195312 c 0
 868.25 -160.400390625 841.650390625 -171.799804688 816 -176.549804688 c 2
 208 -176.549804688 l 2
 156.700195312 -169.900390625 116.799804688 -130.950195312 110.150390625 -79.650390625 c 2
 110.150390625 690.799804688 l 2
 113.950195312 741.150390625 157.650390625 785.799804688 208 790.549804688 c 2
 815.049804688 790.549804688 l 2
340.049804688 627.150390625 m 1
 304.900390625 621.450195312 277.349609375 593.900390625 271.650390625 558.75 c 2
 271.650390625 54.2998046875 l 2
 275.450195312 17.25 306.799804688 -13.150390625 343.849609375 -17.900390625 c 2
 679.200195312 -17.900390625 l 2
 719.099609375 -14.099609375 750.450195312 18.2001953125 754.25 57.150390625 c 2
 754.25 553.049804688 l 2
 750.450195312 591.049804688 721.950195312 622.400390625 683.950195312 627.150390625 c 2
 340.049804688 627.150390625 l 1
EndSplineSet
Validated: 5
EndChar

StartChar: p
Encoding: 112 112 43
Width: 1024
Flags: W
HStem: -176.55 21G<96.5928 261.893> -176.55 21G<96.5928 261.893> 218.65 159.6<282.86 739.268> 626.2 164.35<280.839 739.2>
VStem: 96.5928 165.3<-176.55 209.445 398.675 607.2> 756.843 168.15<396.085 608.868>
LayerCount: 3
Fore
SplineSet
849.943359375 790.549804688 m 2xbc
 876.54296875 785.799804688 899.342773438 772.5 912.642578125 748.75 c 0
 921.193359375 734.5 924.04296875 718.349609375 924.993164062 702.200195312 c 0
 932.592773438 573 919.29296875 437.150390625 924.993164062 307 c 0
 924.04296875 266.150390625 898.392578125 231.950195312 859.443359375 221.5 c 0
 676.092773438 215.799804688 491.79296875 219.599609375 308.443359375 218.650390625 c 0
 287.54296875 216.75 264.743164062 197.75 261.892578125 175.900390625 c 0
 257.142578125 130.299804688 264.743164062 76.150390625 260.943359375 29.599609375 c 0
 261.892578125 -35.9501953125 263.79296875 -103.400390625 261.892578125 -168.950195312 c 0
 261.892578125 -171.799804688 262.842773438 -174.650390625 260.943359375 -176.549804688 c 2
 96.5927734375 -176.549804688 l 1
 96.5927734375 712.650390625 l 2
 100.392578125 751.599609375 132.693359375 786.75 171.642578125 790.549804688 c 2
 849.943359375 790.549804688 l 2xbc
325.54296875 626.200195312 m 1
 292.29296875 623.349609375 267.592773438 598.650390625 264.743164062 565.400390625 c 0
 261.892578125 532.150390625 261.892578125 475.150390625 264.743164062 441.900390625 c 0
 267.592773438 408.650390625 292.29296875 381.099609375 326.493164062 378.25 c 2
 696.04296875 378.25 l 2
 733.092773438 383.950195312 753.993164062 408.650390625 756.842773438 445.700195312 c 0
 758.743164062 478 758.743164062 527.400390625 756.842773438 559.700195312 c 0
 753.993164062 597.700195312 731.193359375 622.400390625 693.193359375 626.200195312 c 2
 325.54296875 626.200195312 l 1
EndSplineSet
Validated: 33
EndChar

StartChar: q
Encoding: 113 113 44
Width: 1024
Flags: W
HStem: -175.575 21G<648.433 688.75> -175.575 21G<648.433 688.75> -100.525 152<312.974 614.6> 640.475 150.101<312.025 710.815>
VStem: 139.6 151.051<73.1055 619.403> 732.4 152<52.4248 618.43>
LayerCount: 3
Fore
SplineSet
778 790.575195312 m 2xbc
 784.650390625 788.674804688 792.25 789.625 798.900390625 787.724609375 c 0
 838.799804688 779.174804688 884.400390625 735.474609375 884.400390625 692.724609375 c 2
 884.400390625 51.474609375 l 1
 732.400390625 52.4248046875 l 1
 732.400390625 578.724609375 l 2
 732.400390625 605.325195312 693.450195312 640.474609375 666.849609375 640.474609375 c 2
 359.049804688 640.474609375 l 2
 322 636.674804688 293.5 608.174804688 290.650390625 571.125 c 2
 290.650390625 123.674804688 l 2
 292.549804688 86.625 320.099609375 56.224609375 357.150390625 51.474609375 c 2
 631.700195312 51.474609375 l 2
 645 49.5751953125 657.349609375 45.775390625 667.799804688 38.1748046875 c 2
 776.099609375 -68.224609375 l 1
 668.75 -175.575195312 l 1
 607.950195312 -115.724609375 l 2
 598.450195312 -109.075195312 588.950195312 -104.325195312 577.549804688 -102.424804688 c 0
 465.450195312 -98.625 352.400390625 -101.474609375 239.349609375 -100.525390625 c 0
 195.650390625 -95.775390625 155.75 -64.4248046875 143.400390625 -21.6748046875 c 0
 141.5 -15.025390625 141.5 -9.3251953125 139.599609375 -2.6748046875 c 2
 139.599609375 692.724609375 l 2
 147.200195312 746.875 190.900390625 786.775390625 245.049804688 790.575195312 c 2
 778 790.575195312 l 2xbc
EndSplineSet
Validated: 33
EndChar

StartChar: r
Encoding: 114 114 45
Width: 1024
Flags: W
HStem: -176.55 21G<113.475 273.075> -176.55 21G<113.475 273.075> 626.2 164.35<289.082 734.922>
VStem: 113.475 159.601<-176.55 610.215>
LayerCount: 3
Fore
SplineSet
757.575195312 790.549804688 m 2xb0
 772.775390625 786.75 787.974609375 782 800.325195312 771.549804688 c 2
 910.525390625 661.349609375 l 1
 795.575195312 544.5 l 1
 762.325195312 572.049804688 733.825195312 621.450195312 687.275390625 626.200195312 c 2
 328.174804688 626.200195312 l 2
 305.375 625.25 273.075195312 594.849609375 273.075195312 572.049804688 c 2
 273.075195312 -176.549804688 l 1
 113.474609375 -176.549804688 l 1
 113.474609375 707.900390625 l 2
 113.474609375 746.849609375 160.974609375 786.75 198.025390625 790.549804688 c 2
 757.575195312 790.549804688 l 2xb0
EndSplineSet
Validated: 1
EndChar

StartChar: s
Encoding: 115 115 46
Width: 1024
Flags: W
HStem: -176.55 161.5<112.598 741.59> 228.15 160.55<283.216 741.569> 630.95 159.6<285.179 913.447>
VStem: 110.697 165.3<395.558 621.832> 749.098 164.35<-8.03858 220.507>
LayerCount: 3
Fore
SplineSet
913.447265625 790.549804688 m 2
 913.447265625 630.950195312 l 1
 324.447265625 630.950195312 l 2
 297.84765625 630.950195312 276.947265625 606.25 275.047851562 581.549804688 c 0
 271.247070312 534.049804688 278.84765625 481.799804688 275.997070312 434.299804688 c 0
 277.897460938 412.450195312 291.197265625 395.349609375 312.09765625 388.700195312 c 0
 490.697265625 384.900390625 671.197265625 387.75 850.747070312 386.799804688 c 0
 884.947265625 381.099609375 910.59765625 353.549804688 913.447265625 319.349609375 c 2
 913.447265625 -101.5 l 2
 910.59765625 -131.900390625 885.897460938 -162.299804688 856.447265625 -171.799804688 c 0
 848.84765625 -174.650390625 842.197265625 -174.650390625 834.59765625 -176.549804688 c 2
 112.59765625 -176.549804688 l 1
 110.697265625 -15.0498046875 l 1
 711.09765625 -15.0498046875 l 2
 712.997070312 -15.0498046875 724.397460938 -9.349609375 726.297851562 -8.400390625 c 0
 738.647460938 -0.7998046875 748.147460938 14.400390625 749.09765625 28.650390625 c 0
 753.84765625 79 746.247070312 135.049804688 749.09765625 185.400390625 c 0
 745.297851562 208.200195312 729.147460938 225.299804688 706.34765625 228.150390625 c 2
 189.547851562 228.150390625 l 2
 145.84765625 234.799804688 113.547851562 272.799804688 110.697265625 316.5 c 0
 111.647460938 443.799804688 108.797851562 571.099609375 112.59765625 697.450195312 c 0
 120.197265625 738.299804688 151.547851562 774.400390625 191.447265625 785.799804688 c 2
 213.297851562 790.549804688 l 1
 913.447265625 790.549804688 l 2
EndSplineSet
Validated: 33
EndChar

StartChar: t
Encoding: 116 116 47
Width: 1024
Flags: W
HStem: -176.55 21G<326.75 491.1> -176.55 21G<326.75 491.1> 625.25 165.3<115.85 306.93 509.612 909.1>
VStem: 326.75 164.35<-176.55 605.062>
LayerCount: 3
Fore
SplineSet
909.099609375 790.549804688 m 1xb0
 909.099609375 625.25 l 1
 548.099609375 625.25 l 2
 527.200195312 625.25 491.099609375 590.099609375 491.099609375 569.200195312 c 2
 491.099609375 -176.549804688 l 1
 326.75 -176.549804688 l 1
 326.75 557.799804688 l 2
 326.75 585.349609375 296.349609375 625.25 267.849609375 625.25 c 2
 115.849609375 625.25 l 1
 114.900390625 790.549804688 l 1
 909.099609375 790.549804688 l 1xb0
EndSplineSet
Validated: 1
EndChar

StartChar: u
Encoding: 117 117 48
Width: 1024
Flags: W
HStem: -176.55 166.25<290.276 734.363> 770.55 20G<110.15 276.4 748.55 913.85> 770.55 20G<110.15 276.4 748.55 913.85>
VStem: 110.15 166.25<3.73509 789.6> 748.55 165.3<4.44809 789.6>
LayerCount: 3
Fore
SplineSet
913.849609375 790.549804688 m 1xd8
 913.849609375 -65.400390625 l 2
 911.950195312 -73.9501953125 911 -82.5 908.150390625 -91.0498046875 c 0
 897.700195312 -127.150390625 869.200195312 -156.599609375 834.049804688 -168.950195312 c 2
 797.950195312 -176.549804688 l 1
 226.049804688 -176.549804688 l 2
 218.450195312 -174.650390625 211.799804688 -174.650390625 204.200195312 -172.75 c 0
 161.450195312 -164.200195312 125.349609375 -128.099609375 114.900390625 -86.2998046875 c 0
 113 -78.7001953125 112.049804688 -72.0498046875 110.150390625 -64.4501953125 c 2
 110.150390625 790.549804688 l 1
 276.400390625 789.599609375 l 1
 276.400390625 40.0498046875 l 2
 276.400390625 18.2001953125 310.599609375 -13.150390625 333.400390625 -10.2998046875 c 2
 696.299804688 -10.2998046875 l 2
 715.299804688 -10.2998046875 748.549804688 20.099609375 748.549804688 38.150390625 c 2
 748.549804688 789.599609375 l 1
 913.849609375 790.549804688 l 1xd8
EndSplineSet
Validated: 37
EndChar

StartChar: v
Encoding: 118 118 49
Width: 1024
Flags: W
HStem: -176.575 21G<242.2 420.8> -176.575 21G<242.2 420.8> 769.575 20G<130.1 295.4 735.14 787.183> 769.575 20G<130.1 295.4 735.14 787.183>
VStem: 130.1 165.301<-7.25206 788.625>
LayerCount: 3
Fore
SplineSet
130.099609375 789.575195312 m 1xa8
 295.400390625 788.625 l 1
 295.400390625 18.1748046875 l 2
 295.400390625 17.224609375 299.200195312 10.5751953125 300.150390625 8.6748046875 c 0
 315.349609375 -17.9248046875 356.200195312 -16.974609375 370.450195312 10.5751953125 c 2
 744.75 789.575195312 l 1
 893.900390625 719.275390625 l 1
 888.200195312 704.075195312 l 1
 495.849609375 -111.025390625 l 2
 479.700195312 -140.474609375 453.099609375 -163.275390625 420.799804688 -171.825195312 c 2
 392.299804688 -176.575195312 l 1
 246 -176.575195312 l 2
 238.400390625 -174.674804688 231.75 -174.674804688 224.150390625 -172.775390625 c 0
 182.349609375 -164.224609375 146.25 -129.075195312 134.849609375 -87.275390625 c 0
 132.950195312 -78.724609375 132 -71.125 130.099609375 -63.525390625 c 2
 130.099609375 789.575195312 l 1xa8
EndSplineSet
Validated: 37
EndChar

StartChar: w
Encoding: 119 119 50
Width: 1024
Flags: W
HStem: -176.55 164.35<208.872 411.748 607.447 814.87> 770.55 20G<30.3496 193.75 428.4 592.75 829.3 993.65> 770.55 20G<30.3496 193.75 428.4 592.75 829.3 993.65>
VStem: 30.3496 163.4<4.44989 790.55> 428.4 164.35<3.9531 790.55> 829.3 164.351<20.286 790.55>
LayerCount: 3
Fore
SplineSet
134.849609375 -176.549804688 m 1xdc
 88.2998046875 -173.700195312 30.349609375 -119.549804688 30.349609375 -73 c 2
 30.349609375 790.549804688 l 1
 193.75 790.549804688 l 1
 193.75 42.900390625 l 2
 193.75 14.400390625 227.950195312 -10.2998046875 254.549804688 -12.2001953125 c 0
 279.25 -14.099609375 360 -16 380.900390625 -10.2998046875 c 0
 406.549804688 -3.650390625 428.400390625 23.900390625 428.400390625 50.5 c 2
 428.400390625 790.549804688 l 1
 592.75 790.549804688 l 1
 592.75 39.099609375 l 2
 592.75 38.150390625 595.599609375 28.650390625 596.549804688 26.75 c 0
 606.049804688 4.900390625 628.849609375 -10.2998046875 652.599609375 -12.2001953125 c 0
 683.950195312 -15.0498046875 738.099609375 -15.0498046875 769.450195312 -12.2001953125 c 0
 791.299804688 -10.2998046875 811.25 1.099609375 821.700195312 20.099609375 c 0
 823.599609375 23.900390625 829.299804688 39.099609375 829.299804688 41.9501953125 c 2
 829.299804688 790.549804688 l 1
 993.650390625 790.549804688 l 1
 993.650390625 -73 l 2
 993.650390625 -78.7001953125 987 -96.75 985.099609375 -102.450195312 c 0
 969.900390625 -140.450195312 930 -172.75 889.150390625 -176.549804688 c 2
 134.849609375 -176.549804688 l 1xdc
EndSplineSet
Validated: 37
EndChar

StartChar: x
Encoding: 120 120 51
Width: 1024
Flags: W
HStem: -175.6 21G<127.2 167.2 856.8 896.8> -175.6 21G<127.2 167.2 856.8 896.8> 769.6 20G<127.038 167.2 856.8 896.962> 769.6 20G<127.038 167.2 856.8 896.962>
LayerCount: 3
Fore
SplineSet
147.200195312 789.599609375 m 1xa0
 460.700195312 476.099609375 l 2
 490.150390625 452.349609375 533.849609375 452.349609375 563.299804688 476.099609375 c 2
 876.799804688 789.599609375 l 1
 994.599609375 672.75 l 1
 680.150390625 358.299804688 l 2
 656.400390625 328.849609375 656.400390625 285.150390625 680.150390625 255.700195312 c 2
 994.599609375 -57.7998046875 l 1
 876.799804688 -175.599609375 l 1
 564.25 136.950195312 l 2
 532.900390625 162.599609375 491.099609375 162.599609375 459.75 136.950195312 c 2
 147.200195312 -175.599609375 l 1
 29.400390625 -57.7998046875 l 1
 343.849609375 255.700195312 l 2
 367.599609375 285.150390625 367.599609375 328.849609375 343.849609375 358.299804688 c 2
 29.400390625 672.75 l 1
 147.200195312 789.599609375 l 1xa0
EndSplineSet
Validated: 33
EndChar

StartChar: y
Encoding: 121 121 52
Width: 1024
Flags: W
HStem: -176.55 21G<329.6 493.95> -176.55 21G<329.6 493.95> 218.65 160.55<282.609 319.5 502.905 741.28> 770.55 20G<98.75 266.9 757.1 925.25> 770.55 20G<98.75 266.9 757.1 925.25>
VStem: 98.75 168.15<395.178 790.55> 329.6 164.351<-174.65 208.289> 757.1 168.15<394.895 790.55>
LayerCount: 3
Fore
SplineSet
98.75 790.549804688 m 1xb7
 266.900390625 790.549804688 l 1
 266.900390625 433.349609375 l 2
 266.900390625 408.650390625 303 377.299804688 327.700195312 378.25 c 2
 700.099609375 379.200195312 l 2
 722.900390625 379.200195312 757.099609375 408.650390625 757.099609375 431.450195312 c 2
 757.099609375 790.549804688 l 1
 925.25 790.549804688 l 1
 925.25 323.150390625 l 2
 923.349609375 318.400390625 923.349609375 312.700195312 921.450195312 307 c 0
 908.150390625 258.549804688 866.349609375 223.400390625 816.950195312 218.650390625 c 2
 539.549804688 218.650390625 l 2
 521.5 219.599609375 493.950195312 193.950195312 493.950195312 176.849609375 c 2
 493.950195312 -174.650390625 l 1
 492.049804688 -176.549804688 l 1
 329.599609375 -176.549804688 l 1
 329.599609375 170.200195312 l 2
 329.599609375 194.900390625 303.950195312 216.75 280.200195312 218.650390625 c 0
 220.349609375 223.400390625 174.75 205.349609375 128.200195312 258.549804688 c 0
 112.049804688 277.549804688 103.5 300.349609375 98.75 325.049804688 c 2
 98.75 790.549804688 l 1xb7
EndSplineSet
Validated: 37
EndChar

StartChar: z
Encoding: 122 122 53
Width: 1024
Flags: W
HStem: -176.55 161.5<280.908 911.313> 630.95 159.6<112.363 742.104>
LayerCount: 3
Fore
SplineSet
219.713867188 -176.549804688 m 1
 163.6640625 -168.950195312 119.963867188 -125.25 114.263671875 -68.25 c 0
 123.763671875 14.400390625 84.8134765625 124.599609375 164.61328125 179.700195312 c 2
 409.713867188 338.349609375 l 1
 378.36328125 385.849609375 l 1
 515.1640625 475.150390625 l 2
 517.063476562 475.150390625 518.013671875 473.25 518.963867188 472.299804688 c 0
 529.4140625 460.900390625 537.963867188 440.950195312 547.463867188 428.599609375 c 2
 735.563476562 552.099609375 l 2
 751.713867188 569.200195312 750.763671875 606.25 732.713867188 621.450195312 c 0
 729.86328125 624.299804688 716.563476562 630.950195312 712.763671875 630.950195312 c 2
 112.36328125 630.950195312 l 1
 112.36328125 790.549804688 l 1
 805.86328125 790.549804688 l 2
 816.313476562 790.549804688 841.013671875 781.049804688 850.513671875 775.349609375 c 0
 940.763671875 724.049804688 901.813476562 606.25 910.36328125 521.700195312 c 0
 906.563476562 487.5 888.513671875 456.150390625 860.963867188 436.200195312 c 2
 636.763671875 292.75 l 1
 668.11328125 244.299804688 l 1
 531.313476562 155 l 1
 500.9140625 199.650390625 l 1
 496.1640625 200.599609375 l 1
 290.013671875 65.7001953125 l 2
 273.86328125 49.5498046875 271.963867188 12.5 288.11328125 -3.650390625 c 0
 290.963867188 -6.5 305.213867188 -15.0498046875 308.063476562 -15.0498046875 c 2
 911.313476562 -15.0498046875 l 1
 911.313476562 -176.549804688 l 1
 219.713867188 -176.549804688 l 1
EndSplineSet
Validated: 37
EndChar

StartChar: underscore
Encoding: 95 95 56
Width: 1024
Flags: W
HStem: -180.6 167.199<62.7002 962.185>
LayerCount: 3
Fore
SplineSet
61.8154296875 -177.75 m 5
 61.8154296875 -166.349609375 l 5
 62.7001953125 -13.400390625 l 5
 77.7353515625 -13.400390625 l 5
 962.184570312 -14.349609375 l 5
 962.184570312 -178.700195312 l 5
 68.005859375 -180.599609375 l 5
 61.8154296875 -180.599609375 l 5
 61.8154296875 -178.700195312 l 5
 62.7001953125 -177.75 l 5
 61.8154296875 -177.75 l 5
962.184570312 -178.700195312 m 5
 962.184570312 -180.599609375 l 5
 68.005859375 -180.599609375 l 5
 962.184570312 -178.700195312 l 5
77.7353515625 -13.400390625 m 5
 962.184570312 -13.400390625 l 5
 962.184570312 -14.349609375 l 5
 77.7353515625 -13.400390625 l 5
61.8154296875 -166.349609375 m 5
 61.8154296875 -13.400390625 l 5
 62.7001953125 -13.400390625 l 5
 61.8154296875 -166.349609375 l 5
61.8154296875 -178.700195312 m 5
 61.8154296875 -177.75 l 5
 62.7001953125 -177.75 l 5
 61.8154296875 -178.700195312 l 5
EndSplineSet
Validated: 5
EndChar
